<svg width="180" height="180" viewBox="0 0 100 100" xmlns="http://www.w3.org/2000/svg">
  <defs>
    <linearGradient id="blueGradient" x1="0%" y1="0%" x2="100%" y2="100%">
      <stop offset="0%" stop-color="#60A5FA" />
      <stop offset="100%" stop-color="#3B82F6" />
    </linearGradient>
    <linearGradient id="greenGradient" x1="0%" y1="0%" x2="100%" y2="100%">
      <stop offset="0%" stop-color="#4ADE80" />
      <stop offset="100%" stop-color="#22C55E" />
    </linearGradient>
  </defs>
  
  <!-- Background -->
  <rect width="100" height="100" fill="#F8FAFC" rx="15"/>
  
  <!-- Globe Base Circle -->
  <circle cx="50" cy="50" r="28" fill="url(#blueGradient)" stroke="#1E40AF" stroke-width="2"/>
  
  <!-- Continents -->
  <path d="M 35 35 Q 45 30 55 35 Q 60 40 55 50 Q 50 55 40 50 Q 30 45 35 35 Z" fill="url(#greenGradient)"/>
  <path d="M 60 45 Q 70 40 75 50 Q 70 60 65 55 Q 55 50 60 45 Z" fill="url(#greenGradient)"/>
  <path d="M 30 60 Q 40 65 45 70 Q 35 75 25 70 Q 25 65 30 60 Z" fill="url(#greenGradient)"/>
  
  <!-- Orbital Path -->
  <circle cx="50" cy="50" r="40" fill="none" stroke="#374151" stroke-width="1.5" stroke-dasharray="6,3" opacity="0.4"/>
  
  <!-- Airplane -->
  <g transform="translate(90, 50)">
    <path d="M -8 0 L -2 -3 L 4 -1 L 6 0 L 4 1 L -2 3 Z" fill="white" stroke="#374151" stroke-width="1"/>
    <path d="M -4 -1 L -1 -4 L 2 -2 L -1 0 Z" fill="white" stroke="#374151" stroke-width="1"/>
    <path d="M -4 1 L -1 4 L 2 2 L -1 0 Z" fill="white" stroke="#374151" stroke-width="1"/>
  </g>
  
  <!-- Travel trail -->
  <circle cx="85" cy="45" r="2" fill="#F59E0B"/>
  <circle cx="80" cy="40" r="1.5" fill="#F59E0B" opacity="0.8"/>
  <circle cx="75" cy="35" r="1" fill="#F59E0B" opacity="0.6"/>
</svg>